<svg width="25" height="25" viewBox="0 0 25 25" fill="none" xmlns="http://www.w3.org/2000/svg">
<path fill-rule="evenodd" clip-rule="evenodd" d="M8.98702 11.1225C8.79756 10.1408 8.69835 9.127 8.69835 8.09V0.97242H24.6082V23.9999C20.7558 23.9999 17.2231 22.6306 14.4704 20.3522C11.7241 22.1818 7.32043 23.9208 2.00012 22.9535C3.4655 22.3255 9.1177 18.5573 8.90836 11.0211C8.93352 11.0557 8.95975 11.0895 8.98702 11.1225Z" fill="white"/>
<path d="M8.98702 11.1225L8.73543 11.3301L9.3073 11.0607L8.98702 11.1225ZM8.69835 0.97242V0.646229H8.37216V0.97242H8.69835ZM24.6082 0.97242H24.9344V0.646229H24.6082V0.97242ZM24.6082 23.9999V24.3261H24.9344V23.9999H24.6082ZM14.4704 20.3522L14.6784 20.101L14.4915 19.9463L14.2896 20.0808L14.4704 20.3522ZM2.00012 22.9535L1.87163 22.6537L0.875555 23.0806L1.94177 23.2744L2.00012 22.9535ZM8.90836 11.0211L9.17216 10.8292L8.55307 9.97796L8.5823 11.0301L8.90836 11.0211ZM8.37216 8.09C8.37216 9.14785 8.47337 10.1824 8.66674 11.1843L9.3073 11.0607C9.12176 10.0993 9.02454 9.10615 9.02454 8.09H8.37216ZM8.37216 0.97242V8.09H9.02454V0.97242H8.37216ZM24.6082 0.646229H8.69835V1.29861H24.6082V0.646229ZM24.9344 23.9999V0.97242H24.2821V23.9999H24.9344ZM14.2624 20.6035C17.0715 22.9285 20.6771 24.3261 24.6082 24.3261V23.6737C20.8345 23.6737 17.3748 22.3327 14.6784 20.101L14.2624 20.6035ZM1.94177 23.2744C7.36598 24.2606 11.8544 22.4869 14.6512 20.6237L14.2896 20.0808C11.5938 21.8767 7.27489 23.581 2.05847 22.6326L1.94177 23.2744ZM8.5823 11.0301C8.68447 14.7082 7.35811 17.4609 5.82755 19.3741C4.29059 21.2953 2.55435 22.3611 1.87163 22.6537L2.12861 23.2533C2.91127 22.9179 4.73382 21.7856 6.33697 19.7816C7.94653 17.7697 9.3416 14.8702 9.23443 11.012L8.5823 11.0301ZM9.2386 10.9149C9.21549 10.8869 9.19334 10.8583 9.17216 10.8292L8.64456 11.2129C8.6737 11.253 8.70401 11.2921 8.73543 11.3301L9.2386 10.9149Z" fill="white"/>
</svg>
