<svg width="20" height="20" viewBox="0 0 20 20" fill="none" xmlns="http://www.w3.org/2000/svg">
<path d="M9.25017 2.5C6.20881 2.50548 4.61618 2.58014 3.59838 3.59795C2.5 4.69633 2.5 6.46415 2.5 9.99975C2.5 13.5354 2.5 15.3032 3.59838 16.4016C4.69676 17.5 6.46458 17.5 10.0003 17.5C13.5358 17.5 15.3037 17.5 16.4021 16.4016C17.4198 15.3838 17.4945 13.7912 17.5 10.7498" stroke="#A3A3A3" stroke-width="1.25" stroke-linecap="round" stroke-linejoin="round"/>
<path d="M17.5592 3.35958C17.8039 3.11605 17.8047 2.72032 17.5612 2.47571C17.3177 2.23108 16.922 2.23021 16.6773 2.47375L17.5592 3.35958ZM8.7255 10.3904C8.48091 10.6339 8.48008 11.0297 8.72358 11.2743C8.96708 11.5189 9.36283 11.5197 9.60749 11.2762L8.7255 10.3904ZM13.3331 1.875C12.9879 1.87503 12.7082 2.15488 12.7082 2.50006C12.7082 2.84523 12.9881 3.12503 13.3332 3.125L13.3331 1.875ZM16.8748 6.66667C16.8748 7.01184 17.1547 7.29167 17.4998 7.29167C17.845 7.29167 18.1248 7.01184 18.1248 6.66667H16.8748ZM16.6773 2.47375L8.7255 10.3904L9.60749 11.2762L17.5592 3.35958L16.6773 2.47375ZM16.7992 2.07379C16.2152 1.97036 15.3345 1.92247 14.6316 1.89892C14.2733 1.88693 13.9495 1.88096 13.7152 1.87798C13.5981 1.87649 13.503 1.87574 13.4371 1.87537C13.4041 1.87518 13.3784 1.87509 13.3607 1.87505C13.352 1.87503 13.3452 1.87501 13.3406 1.87501C13.3382 1.875 13.3364 1.875 13.3352 1.875C13.3346 1.875 13.3334 1.875 13.3331 1.875C13.3331 1.875 13.3331 1.875 13.3332 2.5C13.3332 3.125 13.3332 3.125 13.3332 3.125C13.3335 3.125 13.334 3.125 13.3345 3.125C13.3354 3.125 13.337 3.125 13.339 3.12501C13.3431 3.12501 13.3492 3.12502 13.3575 3.12504C13.3739 3.12508 13.3983 3.12517 13.43 3.12535C13.4933 3.12571 13.5854 3.12642 13.6993 3.12787C13.9274 3.13078 14.2423 3.13659 14.5897 3.14822C15.2979 3.17194 16.0957 3.21866 16.5812 3.30464L16.7992 2.07379ZM17.4998 6.66667C18.1248 6.66667 18.1248 6.66671 18.1248 6.66667C18.1248 6.66632 18.1248 6.66522 18.1248 6.6646C18.1248 6.66336 18.1248 6.66157 18.1248 6.65924C18.1248 6.6546 18.1248 6.64782 18.1248 6.63902C18.1247 6.62142 18.1247 6.59569 18.1245 6.56272C18.1241 6.49678 18.1233 6.40177 18.1218 6.28457C18.1188 6.05033 18.1128 5.72652 18.1008 5.36836C18.0772 4.66547 18.0294 3.78488 17.9261 3.20091L16.6952 3.41867C16.7811 3.90422 16.8278 4.70206 16.8516 5.41024C16.8632 5.75761 16.869 6.07247 16.8719 6.30055C16.8734 6.41449 16.8741 6.50653 16.8745 6.56987C16.8747 6.60152 16.8747 6.62599 16.8748 6.64242C16.8748 6.65062 16.8748 6.65683 16.8748 6.6609C16.8748 6.66294 16.8748 6.66445 16.8748 6.66542C16.8748 6.6659 16.8748 6.66646 16.8748 6.66667C16.8748 6.66666 16.8748 6.66667 17.4998 6.66667ZM16.5812 3.30464C16.6233 3.31209 16.6462 3.32785 16.6591 3.34073C16.6719 3.3536 16.6877 3.37652 16.6952 3.41867L17.9261 3.20091C17.8227 2.61643 17.3839 2.17733 16.7992 2.07379L16.5812 3.30464Z" fill="#A3A3A3"/>
</svg>
