<svg width="108" height="107" viewBox="0 0 108 107" fill="none" xmlns="http://www.w3.org/2000/svg">
<path d="M84.6523 75.2344C84.6523 78.9277 81.6581 81.9219 77.9648 81.9219C74.2716 81.9219 71.2773 78.9277 71.2773 75.2344C71.2773 71.5411 74.2716 68.5469 77.9648 68.5469C81.6581 68.5469 84.6523 71.5411 84.6523 75.2344Z" fill="#262626"/>
<path opacity="0.4" d="M69.4026 43.0767L88.2868 32.3766C89.8963 31.4646 90.7014 31.0086 91.3559 31.3695C92.0104 31.7304 92.0536 32.6344 92.1401 34.4422C92.2561 36.879 92.3194 39.704 92.3907 43.0442C92.4099 43.9468 92.425 44.564 92.4362 45.0152C92.4977 47.4749 94.3849 49.5092 96.845 49.5618C99.3047 49.614 101.411 47.6639 101.353 45.2042C101.341 44.7036 101.323 43.9934 101.298 42.8545L101.291 42.5184C101.152 35.9848 101.037 30.5861 100.276 26.2116C99.4656 21.5501 97.866 17.6469 94.5245 14.297C92.6372 12.4046 90.5579 11.069 88.2578 10.1158C87.9079 9.92474 87.5329 9.78069 87.1419 9.68876C85.6716 9.17039 84.1143 8.7884 82.4633 8.50128C78.001 7.72504 72.4642 7.58625 65.7348 7.41755L65.4013 7.40921C56.6817 7.1904 50.2037 7.19044 41.4841 7.40921L41.1504 7.41759C34.4212 7.58625 28.8845 7.72504 24.4218 8.50124C19.6855 9.32509 15.7197 10.9295 12.3608 14.297C9.01942 17.6469 7.41955 21.5501 6.60907 26.2116C5.84843 30.5862 5.73332 35.9845 5.594 42.5183L5.58682 42.8544C5.49186 47.3037 5.4919 49.6661 5.58691 54.1151L5.59409 54.4513C5.73336 60.985 5.84848 66.3831 6.60911 70.7581C7.41964 75.4193 9.01951 79.3225 12.3608 82.6725C15.7198 86.0399 19.6855 87.6444 24.4219 88.4683C28.8845 89.2445 34.4212 89.3832 41.1505 89.5517L41.4842 89.5602C42.9474 89.5967 43.8453 89.6275 44.536 89.652C46.9919 89.7385 48.9835 87.7323 48.9835 85.2748C48.9835 82.8174 46.9911 80.8361 44.5354 80.7487C43.8884 80.7256 43.0411 80.6975 41.708 80.664C34.5615 80.4848 29.6875 80.3511 25.9506 79.701C22.4139 79.0858 20.3534 78.0764 18.6731 76.3916C16.9752 74.6894 15.9827 72.6569 15.3878 69.2351C14.756 65.6016 14.6434 60.8802 14.4949 53.9252C14.4026 49.6028 14.4025 47.3665 14.4948 43.0442C14.5662 39.7045 14.6292 36.8798 14.7454 34.4433C14.8316 32.6354 14.8747 31.7314 15.5294 31.3705C16.1841 31.0096 16.9888 31.4656 18.5984 32.3776L37.4812 43.0767C43.2753 46.3598 48.1756 48.4847 53.4418 48.4847C58.708 48.4847 63.6082 46.3598 69.4026 43.0767Z" fill="#262626"/>
<path fill-rule="evenodd" clip-rule="evenodd" d="M77.9622 59.6305C69.3443 59.6305 62.3581 66.6167 62.3581 75.2347C62.3581 83.8527 69.3443 90.8389 77.9622 90.8389C80.4246 90.8389 82.4206 92.8349 82.4206 95.2972C82.4206 97.7595 80.4246 99.7555 77.9622 99.7555C64.4196 99.7555 53.4414 88.7773 53.4414 75.2347C53.4414 61.6921 64.4196 50.7139 77.9622 50.7139C91.5049 50.7139 102.483 61.6921 102.483 75.2347V77.4639C102.483 83.6195 97.4929 88.6097 91.3372 88.6097C88.1255 88.6097 85.2307 87.2513 83.1968 85.0774C81.6364 85.9093 79.8544 86.3805 77.9622 86.3805C71.8066 86.3805 66.8164 81.3903 66.8164 75.2347C66.8164 69.0791 71.8066 64.0889 77.9622 64.0889C84.1179 64.0889 89.1081 69.0791 89.1081 75.2347V77.4639C89.1081 78.6948 90.1063 79.693 91.3372 79.693C92.5682 79.693 93.5664 78.6948 93.5664 77.4639V75.2347C93.5664 66.6167 86.5802 59.6305 77.9622 59.6305ZM80.1914 75.2347C80.1914 74.0038 79.1932 73.0055 77.9622 73.0055C76.7313 73.0055 75.7331 74.0038 75.7331 75.2347C75.7331 76.4656 76.7313 77.4639 77.9622 77.4639C79.1932 77.4639 80.1914 76.4656 80.1914 75.2347Z" fill="#262626"/>
</svg>
