<svg width="25" height="24" viewBox="0 0 25 24" fill="none" xmlns="http://www.w3.org/2000/svg">
<path fill-rule="evenodd" clip-rule="evenodd" d="M3.45078 10.853C8.7955 8.52439 12.3595 6.98923 14.1427 6.24752C19.2342 4.12978 20.2922 3.76191 20.9818 3.74976C21.1335 3.74709 21.4726 3.78468 21.6922 3.96292C21.8777 4.11342 21.9287 4.31673 21.9532 4.45942C21.9776 4.60212 22.008 4.92718 21.9838 5.18117C21.7079 8.08019 20.514 15.1154 19.9067 18.3623C19.6497 19.7362 19.1436 20.1969 18.6537 20.242C17.589 20.3399 16.7806 19.5383 15.7494 18.8624C14.1357 17.8046 13.2241 17.1462 11.6578 16.114C9.84771 14.9212 11.0211 14.2656 12.0527 13.1941C12.3227 12.9137 17.0137 8.64685 17.1045 8.25979C17.1159 8.21138 17.1264 8.03093 17.0192 7.93564C16.912 7.84036 16.7538 7.87294 16.6396 7.89886C16.4778 7.93559 13.9 9.63941 8.90627 13.0103C8.17457 13.5127 7.51183 13.7576 6.91803 13.7447C6.26341 13.7306 5.00419 13.3746 4.06809 13.0703C2.91993 12.6971 2.00739 12.4998 2.08685 11.8659C2.12824 11.5358 2.58289 11.1981 3.45078 10.853Z" fill="#2AAAEC"/>
</svg>
