<svg width="24" height="24" viewBox="0 0 24 24" fill="none" xmlns="http://www.w3.org/2000/svg">
<path d="M1.77263 11.9072C1.77199 13.7084 2.24474 15.4668 3.14365 17.017L1.68652 22.3134L7.13095 20.8922C8.63101 21.7059 10.3199 22.1355 12.0387 22.1361H12.0432C17.7035 22.1361 22.3107 17.5508 22.3132 11.9152C22.3143 9.18416 21.2469 6.61646 19.3078 4.68433C17.3689 2.75248 14.7904 1.68799 12.0427 1.68671C6.38208 1.68671 1.77483 6.27143 1.77238 11.9072L1.77263 11.9072ZM12.043 22.136H12.0431H12.043C12.0429 22.136 12.0428 22.136 12.043 22.136Z" fill="url(#paint0_linear_27_9245)"/>
<path fill-rule="evenodd" clip-rule="evenodd" d="M9.386 7.47752C9.18684 7.03681 8.97728 7.02799 8.78786 7.02024C8.63284 7.01368 8.45553 7.0141 8.27844 7.0141C8.10113 7.0141 7.81314 7.08034 7.56963 7.34515C7.32589 7.60998 6.63916 8.25013 6.63916 9.55207C6.63916 10.8541 7.59183 12.1122 7.72455 12.289C7.8575 12.4654 9.56356 15.2226 12.2653 16.2833C14.5108 17.1648 14.9677 16.9894 15.4551 16.9453C15.9425 16.9012 17.0279 16.3053 17.2493 15.6874C17.4709 15.0695 17.4709 14.5399 17.4045 14.4293C17.338 14.319 17.1607 14.2528 16.8949 14.1205C16.629 13.9882 15.3221 13.3479 15.0785 13.2596C14.8348 13.1714 14.6576 13.1273 14.4803 13.3923C14.3031 13.6569 13.794 14.2528 13.6388 14.4293C13.4838 14.6061 13.3287 14.6282 13.0629 14.4958C12.797 14.3631 11.9408 14.0839 10.9252 13.1825C10.1349 12.4811 9.60145 11.6149 9.44631 11.3499C9.29129 11.0853 9.42976 10.942 9.56304 10.81C9.68248 10.6914 9.82896 10.501 9.96191 10.3466C10.0945 10.1921 10.1388 10.0818 10.2274 9.90526C10.3161 9.72863 10.2718 9.57409 10.2053 9.44172C10.1388 9.30936 9.62221 8.00072 9.38584 7.47744" fill="white"/>
<defs>
<linearGradient id="paint0_linear_27_9245" x1="12" y1="22.3112" x2="12" y2="1.68454" gradientUnits="userSpaceOnUse">
<stop stop-color="#20B038"/>
<stop offset="1" stop-color="#60D66A"/>
</linearGradient>
</defs>
</svg>
