<svg width="157" height="45" viewBox="0 0 157 45" fill="none" xmlns="http://www.w3.org/2000/svg">
<path d="M34.4777 22.2523C34.4435 18.4564 37.5896 16.6096 37.7335 16.5237C35.9517 13.9291 33.1901 13.5745 32.2196 13.5463C29.9001 13.3025 27.6502 14.9325 26.4687 14.9325C25.2635 14.9325 23.444 13.5698 21.483 13.6099C18.9596 13.6487 16.5988 15.108 15.3041 17.374C12.632 21.9944 14.6249 28.7842 17.1849 32.5189C18.4655 34.3479 19.9619 36.3902 21.9205 36.3183C23.8367 36.2394 24.5525 35.0982 26.8649 35.0982C29.1561 35.0982 29.8282 36.3183 31.8257 36.2724C33.8823 36.2394 35.177 34.4351 36.4128 32.5895C37.8927 30.4931 38.487 28.4285 38.5106 28.3225C38.4622 28.306 34.5167 26.802 34.4777 22.2523Z" fill="white"/>
<path d="M30.7037 11.0893C31.7343 9.80202 32.4394 8.05068 32.2437 6.27344C30.752 6.33939 28.8865 7.30398 27.8123 8.56301C26.8619 9.67246 26.0128 11.4909 26.2322 13.201C27.9078 13.3259 29.6282 12.3566 30.7037 11.0893Z" fill="white"/>
<path d="M62.2092 36.0545H59.5312L58.0643 31.4507H52.9655L51.5681 36.0545H48.9609L54.0126 20.3809H57.1327L62.2092 36.0545ZM57.6221 29.5191L56.2955 25.4264C56.1552 25.0083 55.8922 24.0237 55.5043 22.4737H55.4571C55.3026 23.1404 55.0538 24.125 54.7119 25.4264L53.4088 29.5191H57.6221Z" fill="white"/>
<path d="M75.1997 30.2654C75.1997 32.1875 74.6796 33.7069 73.6396 34.8222C72.708 35.8151 71.5512 36.3109 70.1704 36.3109C68.6799 36.3109 67.6092 35.7762 66.9571 34.7068H66.9099V40.6604H64.3959V28.4741C64.3959 27.2657 64.3641 26.0255 64.3027 24.7535H66.5137L66.654 26.5449H66.7012C67.5396 25.1952 68.812 24.5215 70.5194 24.5215C71.8543 24.5215 72.9686 25.0479 73.8601 26.102C74.7539 27.1573 75.1997 28.5447 75.1997 30.2654ZM72.6384 30.3573C72.6384 29.2573 72.3908 28.3504 71.8932 27.6367C71.3496 26.8923 70.6197 26.5202 69.7046 26.5202C69.0844 26.5202 68.5207 26.7274 68.0172 27.1361C67.5125 27.5483 67.1823 28.0866 67.0278 28.7532C66.95 29.0641 66.9111 29.3185 66.9111 29.5187V31.4032C66.9111 32.2252 67.1635 32.9189 67.6681 33.4854C68.1728 34.052 68.8285 34.3346 69.635 34.3346C70.5819 34.3346 71.3189 33.9695 71.846 33.2416C72.3743 32.5126 72.6384 31.5516 72.6384 30.3573Z" fill="white"/>
<path d="M88.2141 30.2654C88.2141 32.1875 87.6941 33.7069 86.6528 34.8222C85.7225 35.8151 84.5657 36.3109 83.1848 36.3109C81.6943 36.3109 80.6236 35.7762 79.9727 34.7068H79.9256V40.6604H77.4115V28.4741C77.4115 27.2657 77.3797 26.0255 77.3184 24.7535H79.5293L79.6697 26.5449H79.7168C80.5541 25.1952 81.8264 24.5215 83.5351 24.5215C84.8687 24.5215 85.9831 25.0479 86.8769 26.102C87.7672 27.1573 88.2141 28.5447 88.2141 30.2654ZM85.6529 30.3573C85.6529 29.2573 85.4041 28.3504 84.9065 27.6367C84.3629 26.8923 83.6353 26.5202 82.7191 26.5202C82.0976 26.5202 81.5352 26.7274 81.0305 27.1361C80.5258 27.5483 80.1968 28.0866 80.0423 28.7532C79.9656 29.0641 79.9256 29.3185 79.9256 29.5187V31.4032C79.9256 32.2252 80.1779 32.9189 80.6802 33.4854C81.1849 34.0508 81.8406 34.3346 82.6495 34.3346C83.5964 34.3346 84.3334 33.9695 84.8605 33.2416C85.3888 32.5126 85.6529 31.5516 85.6529 30.3573Z" fill="white"/>
<path d="M102.767 31.6603C102.767 32.9935 102.303 34.0782 101.373 34.9156C100.351 35.8307 98.9272 36.2877 97.0983 36.2877C95.4097 36.2877 94.056 35.9626 93.0312 35.3113L93.6138 33.2185C94.7175 33.8851 95.9285 34.2196 97.248 34.2196C98.1949 34.2196 98.9319 34.0052 99.4614 33.5789C99.9885 33.1525 100.251 32.5801 100.251 31.8664C100.251 31.2304 100.034 30.6945 99.5993 30.2599C99.1666 29.8253 98.4437 29.4213 97.4344 29.048C94.6868 28.0245 93.3143 26.5252 93.3143 24.5536C93.3143 23.2652 93.7954 22.2087 94.7588 21.3866C95.7186 20.5634 96.9992 20.1523 98.6006 20.1523C100.029 20.1523 101.215 20.4009 102.162 20.8967L101.533 22.9436C100.649 22.4631 99.6489 22.2229 98.5298 22.2229C97.6454 22.2229 96.9544 22.4407 96.4592 22.8742C96.0406 23.2616 95.8307 23.7339 95.8307 24.2934C95.8307 24.9129 96.07 25.4252 96.5511 25.828C96.9698 26.2002 97.7303 26.603 98.8341 27.0376C100.184 27.5805 101.176 28.2153 101.814 28.9432C102.449 29.6687 102.767 30.5767 102.767 31.6603Z" fill="white"/>
<path d="M111.079 26.638H108.308V32.1252C108.308 33.5208 108.796 34.218 109.775 34.218C110.224 34.218 110.596 34.1792 110.891 34.1014L110.961 36.0082C110.466 36.1932 109.813 36.2862 109.006 36.2862C108.013 36.2862 107.237 35.9835 106.677 35.3793C106.119 34.7739 105.838 33.7587 105.838 32.3324V26.6356H104.188V24.7512H105.838V22.6818L108.308 21.9375V24.7512H111.079V26.638Z" fill="white"/>
<path d="M123.581 30.3121C123.581 32.0493 123.084 33.4756 122.091 34.591C121.05 35.7393 119.668 36.3117 117.945 36.3117C116.284 36.3117 114.963 35.7617 113.977 34.6616C112.991 33.5616 112.498 32.173 112.498 30.4994C112.498 28.7481 113.005 27.3136 114.023 26.1982C115.038 25.0817 116.408 24.5234 118.131 24.5234C119.791 24.5234 121.127 25.0735 122.136 26.1747C123.1 27.2429 123.581 28.6221 123.581 30.3121ZM120.973 30.3934C120.973 29.3511 120.75 28.4572 120.298 27.7116C119.771 26.8095 119.018 26.3596 118.041 26.3596C117.031 26.3596 116.263 26.8107 115.736 27.7116C115.284 28.4583 115.062 29.3664 115.062 30.4405C115.062 31.4828 115.284 32.3768 115.736 33.1211C116.28 34.0233 117.039 34.4732 118.019 34.4732C118.979 34.4732 119.732 34.0139 120.276 33.0976C120.739 32.3379 120.973 31.4346 120.973 30.3934Z" fill="white"/>
<path d="M131.753 26.9618C131.504 26.9159 131.239 26.8923 130.961 26.8923C130.076 26.8923 129.392 27.2256 128.911 27.8934C128.493 28.4823 128.283 29.2267 128.283 30.1253V36.0553H125.77L125.794 28.3127C125.794 27.0101 125.762 25.8241 125.699 24.7547H127.889L127.981 26.9171H128.051C128.316 26.1739 128.734 25.5756 129.308 25.1269C129.868 24.7229 130.473 24.5215 131.125 24.5215C131.357 24.5215 131.567 24.538 131.753 24.5674V26.9618Z" fill="white"/>
<path d="M142.998 29.8694C142.998 30.3193 142.968 30.6986 142.906 31.0083H135.363C135.393 32.1248 135.757 32.9787 136.458 33.5676C137.093 34.0941 137.915 34.3579 138.925 34.3579C140.041 34.3579 141.06 34.18 141.976 33.8232L142.37 35.5663C141.3 36.0327 140.035 36.2647 138.577 36.2647C136.822 36.2647 135.445 35.7488 134.443 34.7183C133.443 33.6877 132.941 32.3039 132.941 30.5678C132.941 28.8636 133.407 27.4444 134.34 26.3126C135.316 25.1042 136.636 24.5 138.296 24.5C139.927 24.5 141.162 25.1042 142 26.3126C142.664 27.2725 142.998 28.4596 142.998 29.8694ZM140.6 29.2181C140.617 28.4738 140.453 27.8307 140.112 27.2878C139.677 26.5894 139.008 26.2407 138.109 26.2407C137.287 26.2407 136.618 26.5811 136.108 27.2642C135.689 27.8072 135.44 28.4585 135.363 29.2169L140.6 29.2181Z" fill="white"/>
<path d="M56.7901 10.7409C56.7901 12.1271 56.3739 13.1706 55.5425 13.8714C54.7725 14.518 53.6782 14.8419 52.2608 14.8419C51.558 14.8419 50.9566 14.8112 50.4531 14.75V7.1758C51.1099 7.0698 51.8175 7.01562 52.5816 7.01562C53.9317 7.01562 54.9494 7.30889 55.6357 7.89541C56.4045 8.5585 56.7901 9.5066 56.7901 10.7409ZM55.4871 10.775C55.4871 9.87641 55.2489 9.18742 54.7725 8.70689C54.2961 8.22754 53.6004 7.98728 52.6842 7.98728C52.295 7.98728 51.9637 8.01319 51.6889 8.06737V13.8255C51.841 13.849 52.1193 13.8596 52.5238 13.8596C53.4695 13.8596 54.1994 13.597 54.7135 13.0717C55.2277 12.5464 55.4871 11.7809 55.4871 10.775Z" fill="white"/>
<path d="M63.6982 11.9525C63.6982 12.8064 63.4541 13.506 62.966 14.0548C62.4542 14.619 61.7762 14.9004 60.9295 14.9004C60.1135 14.9004 59.4638 14.6307 58.9791 14.089C58.4956 13.5484 58.2539 12.8664 58.2539 12.0444C58.2539 11.1846 58.5027 10.4791 59.0027 9.93145C59.5027 9.38379 60.1748 9.10938 61.0215 9.10938C61.8375 9.10938 62.4931 9.37908 62.9895 9.91968C63.4612 10.445 63.6982 11.1234 63.6982 11.9525ZM62.4165 11.9925C62.4165 11.4802 62.3056 11.0409 62.0851 10.6746C61.8257 10.2318 61.4566 10.0104 60.9767 10.0104C60.4802 10.0104 60.1029 10.2318 59.8435 10.6746C59.6218 11.0409 59.5121 11.4873 59.5121 12.0149C59.5121 12.5272 59.6229 12.9666 59.8435 13.3328C60.1111 13.7757 60.4838 13.9971 60.9649 13.9971C61.4365 13.9971 61.8068 13.7721 62.0733 13.3211C62.3021 12.9477 62.4165 12.5049 62.4165 11.9925Z" fill="white"/>
<path d="M72.9621 9.2207L71.2228 14.7727H70.0908L69.3703 12.3618C69.1875 11.76 69.0389 11.1617 68.9234 10.5681H68.9009C68.7936 11.1781 68.6451 11.7753 68.454 12.3618L67.6887 14.7727H66.5437L64.9082 9.2207H66.1782L66.8067 11.8601C66.9588 12.4843 67.0838 13.0791 67.184 13.642H67.2064C67.2984 13.178 67.4505 12.5868 67.6652 11.8719L68.454 9.22188H69.4611L70.2169 11.8153C70.3997 12.4478 70.5483 13.0567 70.6627 13.6432H70.6969C70.7806 13.072 70.9068 12.4631 71.0742 11.8153L71.7487 9.22188H72.9621V9.2207Z" fill="white"/>
<path d="M79.3685 14.774H78.1327V11.5941C78.1327 10.6142 77.7601 10.1242 77.0125 10.1242C76.6458 10.1242 76.3498 10.2585 76.1198 10.5282C75.8923 10.7979 75.7767 11.1159 75.7767 11.4798V14.7729H74.5409V10.8085C74.5409 10.3209 74.5256 9.79211 74.4961 9.21971H75.5821L75.6399 10.0877H75.6741C75.818 9.81802 76.0326 9.59542 76.3144 9.41758C76.6493 9.21029 77.0243 9.10547 77.4346 9.10547C77.9535 9.10547 78.3851 9.27271 78.7282 9.60837C79.1551 10.0194 79.3685 10.633 79.3685 11.448V14.774Z" fill="white"/>
<path d="M82.7776 14.7733H81.543V6.67383H82.7776V14.7733Z" fill="white"/>
<path d="M90.0518 11.9525C90.0518 12.8064 89.8077 13.506 89.3195 14.0548C88.8077 14.619 88.1285 14.9004 87.283 14.9004C86.4658 14.9004 85.8161 14.6307 85.3326 14.089C84.8492 13.5484 84.6074 12.8664 84.6074 12.0444C84.6074 11.1846 84.8562 10.4791 85.3562 9.93145C85.8562 9.38379 86.5283 9.10938 87.3738 9.10938C88.191 9.10938 88.8454 9.37908 89.3431 9.91968C89.8147 10.445 90.0518 11.1234 90.0518 11.9525ZM88.7688 11.9925C88.7688 11.4802 88.6579 11.0409 88.4374 10.6746C88.1792 10.2318 87.8089 10.0104 87.3302 10.0104C86.8326 10.0104 86.4552 10.2318 86.197 10.6746C85.9753 11.0409 85.8656 11.4873 85.8656 12.0149C85.8656 12.5272 85.9765 12.9666 86.197 13.3328C86.4646 13.7757 86.8373 13.9971 87.3184 13.9971C87.7901 13.9971 88.1591 13.7721 88.4256 13.3211C88.6556 12.9477 88.7688 12.5049 88.7688 11.9925Z" fill="white"/>
<path d="M96.0342 14.7744H94.9246L94.8326 14.1349H94.7984C94.4187 14.6449 93.8774 14.9004 93.1746 14.9004C92.6499 14.9004 92.2254 14.732 91.9058 14.3975C91.6157 14.0937 91.4707 13.7156 91.4707 13.2669C91.4707 12.5885 91.7537 12.0715 92.3233 11.7134C92.8916 11.3554 93.6911 11.1799 94.7206 11.1881V11.0845C94.7206 10.3531 94.3361 9.98799 93.5661 9.98799C93.0178 9.98799 92.5343 10.1258 92.1169 10.399L91.8657 9.58872C92.3822 9.26955 93.0202 9.10938 93.7725 9.10938C95.2253 9.10938 95.954 9.87492 95.954 11.406V13.4506C95.954 14.0053 95.9811 14.447 96.0342 14.7744ZM94.7512 12.8664V12.0102C93.3881 11.9867 92.7065 12.36 92.7065 13.1291C92.7065 13.4188 92.7843 13.6355 92.9435 13.7804C93.1027 13.9253 93.3055 13.9971 93.5473 13.9971C93.8185 13.9971 94.072 13.9111 94.3031 13.7403C94.5354 13.5684 94.6781 13.3505 94.7312 13.0831C94.7441 13.0231 94.7512 12.9501 94.7512 12.8664Z" fill="white"/>
<path d="M103.056 14.7733H101.96L101.902 13.8817H101.868C101.518 14.5601 100.921 14.8993 100.082 14.8993C99.4127 14.8993 98.8549 14.6367 98.4127 14.1114C97.9705 13.5861 97.75 12.9042 97.75 12.0668C97.75 11.1682 97.9894 10.4403 98.4705 9.88441C98.9363 9.3662 99.507 9.10709 100.186 9.10709C100.933 9.10709 101.455 9.35795 101.752 9.86086H101.776V6.67383H103.013V13.2775C103.013 13.8181 103.027 14.3163 103.056 14.7733ZM101.776 12.4319V11.5062C101.776 11.346 101.764 11.2165 101.742 11.1175C101.672 10.8207 101.522 10.571 101.295 10.3697C101.065 10.1683 100.788 10.067 100.468 10.067C100.007 10.067 99.6461 10.2495 99.3808 10.6158C99.1179 10.9821 98.9846 11.4497 98.9846 12.0209C98.9846 12.5697 99.1108 13.0149 99.3643 13.3576C99.632 13.7227 99.9928 13.9053 100.444 13.9053C100.85 13.9053 101.174 13.7534 101.421 13.4483C101.659 13.1668 101.776 12.8276 101.776 12.4319Z" fill="white"/>
<path d="M113.624 11.9525C113.624 12.8064 113.38 13.506 112.892 14.0548C112.38 14.619 111.703 14.9004 110.855 14.9004C110.04 14.9004 109.391 14.6307 108.905 14.089C108.421 13.5484 108.18 12.8664 108.18 12.0444C108.18 11.1846 108.428 10.4791 108.928 9.93145C109.428 9.38379 110.101 9.10938 110.948 9.10938C111.763 9.10938 112.42 9.37908 112.915 9.91968C113.387 10.445 113.624 11.1234 113.624 11.9525ZM112.343 11.9925C112.343 11.4802 112.233 11.0409 112.012 10.6746C111.751 10.2318 111.384 10.0104 110.902 10.0104C110.407 10.0104 110.03 10.2318 109.769 10.6746C109.548 11.0409 109.438 11.4873 109.438 12.0149C109.438 12.5272 109.549 12.9666 109.769 13.3328C110.037 13.7757 110.41 13.9971 110.891 13.9971C111.362 13.9971 111.734 13.7721 112 13.3211C112.228 12.9477 112.343 12.5049 112.343 11.9925Z" fill="white"/>
<path d="M120.27 14.774H119.035V11.5941C119.035 10.6142 118.662 10.1242 117.914 10.1242C117.547 10.1242 117.251 10.2585 117.022 10.5282C116.793 10.7979 116.679 11.1159 116.679 11.4798V14.7729H115.442V10.8085C115.442 10.3209 115.428 9.79211 115.398 9.21971H116.483L116.541 10.0877H116.575C116.72 9.81802 116.935 9.59542 117.216 9.41758C117.552 9.21029 117.925 9.10547 118.337 9.10547C118.855 9.10547 119.286 9.27271 119.629 9.60837C120.057 10.0194 120.27 10.633 120.27 11.448V14.774Z" fill="white"/>
<path d="M128.587 10.1451H127.226V12.8422C127.226 13.5277 127.468 13.8704 127.946 13.8704C128.168 13.8704 128.352 13.8516 128.497 13.8127L128.529 14.749C128.285 14.8409 127.964 14.8868 127.569 14.8868C127.081 14.8868 126.701 14.7384 126.426 14.4416C126.15 14.1448 126.014 13.6454 126.014 12.9447V10.1451H125.201V9.22059H126.014V8.203L127.225 7.83789V9.21941H128.585L128.587 10.1451Z" fill="white"/>
<path d="M135.128 14.7731H133.891V11.6167C133.891 10.6215 133.519 10.1233 132.772 10.1233C132.199 10.1233 131.808 10.4118 131.593 10.9889C131.557 11.1103 131.535 11.2586 131.535 11.433V14.7719H130.301V6.67361H131.535V10.0196H131.559C131.948 9.41074 132.506 9.10687 133.229 9.10687C133.74 9.10687 134.164 9.27412 134.5 9.60978C134.918 10.0279 135.128 10.6497 135.128 11.4718V14.7731Z" fill="white"/>
<path d="M141.878 11.7347C141.878 11.9561 141.861 12.1422 141.832 12.2941H138.125C138.142 12.8429 138.319 13.2611 138.662 13.5508C138.976 13.8099 139.38 13.9394 139.875 13.9394C140.424 13.9394 140.924 13.8523 141.374 13.6768L141.567 14.5342C141.04 14.7627 140.42 14.8769 139.702 14.8769C138.841 14.8769 138.163 14.6237 137.673 14.1173C137.18 13.6108 136.936 12.9313 136.936 12.0786C136.936 11.2412 137.163 10.5439 137.622 9.98805C138.101 9.39445 138.748 9.09766 139.565 9.09766C140.365 9.09766 140.972 9.39445 141.382 9.98805C141.714 10.4592 141.878 11.0421 141.878 11.7347ZM140.698 11.4155C140.708 11.0492 140.626 10.7336 140.459 10.4674C140.244 10.1247 139.918 9.95271 139.476 9.95271C139.072 9.95271 138.743 10.12 138.492 10.4556C138.287 10.723 138.165 11.0421 138.125 11.4155H140.698Z" fill="white"/>
</svg>
