<svg width="159" height="47" viewBox="0 0 159 47" fill="none" xmlns="http://www.w3.org/2000/svg">
<path d="M123.654 34.6871H125.769V20.6226H123.654V34.6871ZM142.704 25.6893L140.28 31.7866H140.207L137.691 25.6893H135.413L139.187 34.2113L137.035 38.9519H139.24L145.056 25.6898L142.704 25.6893ZM130.709 33.0896C130.018 33.0896 129.051 32.7454 129.051 31.8952C129.051 30.8097 130.255 30.3935 131.293 30.3935C132.222 30.3935 132.661 30.5922 133.226 30.8638C133.061 32.1667 131.931 33.0896 130.709 33.0896ZM130.965 25.3817C129.434 25.3817 127.849 26.0514 127.192 27.535L129.069 28.3129C129.47 27.535 130.217 27.282 131.002 27.282C132.095 27.282 133.207 27.9328 133.225 29.0911V29.2357C132.842 29.0186 132.022 28.693 131.02 28.693C128.996 28.693 126.936 29.7964 126.936 31.8591C126.936 33.7409 128.595 34.9533 130.454 34.9533C131.876 34.9533 132.661 34.32 133.152 33.5778H133.225V34.6641H135.268V29.2717C135.268 26.7747 133.389 25.3817 130.965 25.3817ZM117.895 27.4014H114.886V22.5808H117.895C119.476 22.5808 120.373 23.8798 120.373 24.991C120.373 26.0809 119.476 27.4014 117.895 27.4014ZM117.84 20.6229H112.772V34.6875H114.886V29.3592H117.84C120.184 29.3592 122.488 27.6753 122.488 24.9915C122.488 22.3083 120.184 20.6229 117.84 20.6229ZM90.2064 33.0919C88.7452 33.0919 87.5224 31.8773 87.5224 30.2105C87.5224 28.5244 88.7452 27.2926 90.2064 27.2926C91.6489 27.2926 92.7809 28.5244 92.7809 30.2105C92.7809 31.8773 91.6489 33.0919 90.2064 33.0919ZM92.6348 26.4766H92.5617C92.0871 25.9149 91.1737 25.4074 90.0239 25.4074C87.6132 25.4074 85.4039 27.5102 85.4039 30.2105C85.4039 32.8925 87.6132 34.9767 90.0239 34.9767C91.1737 34.9767 92.0871 34.4691 92.5617 33.8895H92.6348V34.5777C92.6348 36.4089 91.6489 37.3871 90.0602 37.3871C88.7643 37.3871 87.9608 36.4629 87.6318 35.6837L85.7879 36.4448C86.3169 37.713 87.7226 39.2722 90.0603 39.2722C92.5441 39.2722 94.644 37.822 94.644 34.2876V25.6973H92.6349L92.6348 26.4766ZM96.105 34.6867H98.2222V20.6222H96.105V34.6867ZM101.345 30.0471C101.29 28.1983 102.788 27.2561 103.865 27.2561C104.705 27.2561 105.417 27.6731 105.655 28.2708L101.345 30.0471ZM107.918 28.4519C107.517 27.3832 106.293 25.4074 103.792 25.4074C101.308 25.4074 99.245 27.3466 99.245 30.1921C99.245 32.8745 101.29 34.9768 104.029 34.9768C106.238 34.9768 107.517 33.6361 108.047 32.8564L106.403 31.7688C105.855 32.5665 105.107 33.092 104.029 33.092C102.952 33.092 102.185 32.6025 101.693 31.6419L108.137 28.996L107.918 28.4519ZM56.5655 26.8756V28.9054H61.459C61.3129 30.0472 60.9294 30.8807 60.345 31.4608C59.6327 32.1674 58.5188 32.947 56.5654 32.947C53.5524 32.947 51.1971 30.5366 51.1971 27.5462C51.1971 24.5557 53.5524 22.1451 56.5654 22.1451C58.1906 22.1451 59.3772 22.7795 60.2537 23.5951L61.6967 22.163C60.4729 21.0033 58.848 20.1152 56.5654 20.1152C52.438 20.1152 48.9688 23.4501 48.9688 27.5462C48.9688 31.6419 52.438 34.9768 56.5654 34.9768C58.7928 34.9768 60.473 34.2517 61.7875 32.8926C63.1388 31.5513 63.5589 29.6665 63.5589 28.1439C63.5589 27.6732 63.522 27.2382 63.449 26.8756H56.5655ZM69.1229 33.0919C67.6618 33.0919 66.4018 31.8957 66.4018 30.1921C66.4018 28.4704 67.6618 27.2926 69.1229 27.2926C70.5835 27.2926 71.8435 28.4704 71.8435 30.1921C71.8435 31.8957 70.5835 33.0919 69.1229 33.0919ZM69.1229 25.4074C66.4562 25.4074 64.2836 27.4191 64.2836 30.1921C64.2836 32.947 66.4562 34.9768 69.1229 34.9768C71.7886 34.9768 73.9616 32.947 73.9616 30.1921C73.9616 27.4191 71.7886 25.4074 69.1229 25.4074ZM79.6785 33.0919C78.2184 33.0919 76.9579 31.8957 76.9579 30.1921C76.9579 28.4704 78.2184 27.2926 79.6785 27.2926C81.1396 27.2926 82.3992 28.4704 82.3992 30.1921C82.3992 31.8957 81.1396 33.0919 79.6785 33.0919ZM79.6785 25.4074C77.0128 25.4074 74.8402 27.4191 74.8402 30.1921C74.8402 32.947 77.0128 34.9768 79.6785 34.9768C82.3452 34.9768 84.5177 32.947 84.5177 30.1921C84.5177 27.4191 82.3452 25.4074 79.6785 25.4074Z" fill="white"/>
<path d="M25.9314 22.7892L13.8652 35.5012C13.8657 35.5038 13.8666 35.506 13.867 35.5087C14.2371 36.8891 15.5073 37.9055 17.0149 37.9055C17.6175 37.9055 18.1833 37.7438 18.6686 37.4599L18.7071 37.4375L32.2898 29.6581L25.9314 22.7892Z" fill="#EB3131"/>
<path d="M38.1385 20.6262L38.1269 20.6183L32.2629 17.2441L25.6562 23.0792L32.2858 29.6586L38.1189 26.318C39.1416 25.77 39.8359 24.6999 39.8359 23.4659C39.8359 22.2408 39.151 21.176 38.1385 20.6262Z" fill="#F6B60B"/>
<path d="M13.8626 11.3748C13.7901 11.6403 13.752 11.9183 13.752 12.2071V34.6704C13.752 34.9587 13.7896 35.2377 13.8631 35.5023L26.3457 23.1151L13.8626 11.3748Z" fill="#5778C5"/>
<path d="M26.0195 23.4381L32.2654 17.2407L18.698 9.43307C18.2049 9.1399 17.6293 8.9707 17.0134 8.9707C15.5058 8.9707 14.2339 9.98895 13.8637 11.3709C13.8633 11.3723 13.8633 11.3732 13.8633 11.3744L26.0195 23.4381Z" fill="#3BAD49"/>
<path d="M56.1685 11.9416H52.8621V12.7537H55.3398C55.2724 13.4165 55.0068 13.9368 54.5587 14.3147C54.1107 14.6927 53.5386 14.8825 52.8621 14.8825C52.1201 14.8825 51.4914 14.6259 50.9761 14.1161C50.4713 13.5958 50.2146 12.9524 50.2146 12.1773C50.2146 11.4022 50.4713 10.7587 50.9761 10.2385C51.4914 9.72876 52.1201 9.47384 52.8621 9.47384C53.243 9.47384 53.606 9.53887 53.9388 9.68129C54.2718 9.8236 54.5392 10.0223 54.7482 10.2772L55.3769 9.65316C55.0918 9.33142 54.7305 9.08539 54.2824 8.90607C53.8343 8.72675 53.3668 8.64068 52.862 8.64068C51.8721 8.64068 51.0327 8.98166 50.3473 9.66197C49.6619 10.3439 49.3184 11.1842 49.3184 12.1773C49.3184 13.1704 49.6619 14.0125 50.3473 14.6928C51.0327 15.3729 51.8721 15.7141 52.862 15.7141C53.9016 15.7141 54.7304 15.3835 55.368 14.712C55.9294 14.1531 56.2162 13.3973 56.2162 12.4516C56.2162 12.2916 56.1969 12.1209 56.1685 11.9416ZM57.4494 8.79171V15.5628H61.4323V14.7313H58.326V12.5833H61.1278V11.7712H58.326V9.62496H61.4323V8.79168L57.4494 8.79171ZM67.0171 9.62498V8.79171H62.3293V9.62498H64.235V15.5627H65.1116V9.62498H67.0171ZM71.2612 8.79171H70.3846V15.5628H71.2612V8.79171ZM77.0474 9.62498V8.79171H72.3597V9.62498H74.2652V15.5627H75.1418V9.62498H77.0474ZM85.8934 9.67245C85.2169 8.98161 84.3881 8.64062 83.3981 8.64062C82.4063 8.64062 81.5776 8.9816 80.901 9.66191C80.2245 10.3334 79.8916 11.1754 79.8916 12.1772C79.8916 13.1791 80.2245 14.0212 80.901 14.6927C81.5776 15.3729 82.4063 15.714 83.3981 15.714C84.3791 15.714 85.2168 15.3729 85.8934 14.6927C86.5699 14.0212 86.9028 13.1792 86.9028 12.1772C86.9028 11.1841 86.5699 10.3438 85.8934 9.67245ZM81.5297 10.2384C82.0345 9.7287 82.6543 9.47378 83.3981 9.47378C84.1401 9.47378 84.76 9.72871 85.2558 10.2384C85.7605 10.7394 86.0084 11.3932 86.0084 12.1772C86.0084 12.963 85.7605 13.6151 85.2558 14.1161C84.76 14.6258 84.1401 14.8824 83.3981 14.8824C82.6543 14.8824 82.0344 14.6258 81.5297 14.1161C81.0356 13.6045 80.7877 12.963 80.7877 12.1772C80.7877 11.3932 81.0356 10.7499 81.5297 10.2384ZM88.9855 11.3459L88.9484 10.0397H88.9855L92.4531 15.5627H93.3686V8.79164H92.492V12.7537L92.5292 14.0598H92.492L89.1768 8.79164H88.1089V15.5627H88.9855V11.3459Z" fill="white" stroke="white" stroke-width="0.26666" stroke-miterlimit="10"/>
</svg>
