<svg width="149" height="54" viewBox="0 0 149 54" fill="none" xmlns="http://www.w3.org/2000/svg">
<g clip-path="url(#clip0_401_2123)">
<path d="M54.5059 0.531555L57.4299 4.05013V20.0364H61.4549V0.531555H57.4299H54.5059Z" fill="white"/>
<path d="M0 0.531555L2.91671 4.05013V20.0364H6.94906V0.531555H2.91671H0Z" fill="white"/>
<path d="M26.1842 13.1083L15.5893 0.531555H13.2268H10.3101L13.2268 4.05013V20.0364H17.2518V8.86273L26.5926 20.0364H30.2603V0.531555H26.1842V13.1083Z" fill="white"/>
<path d="M144.924 13.1083L134.329 0.531555H131.966H129.049L131.966 4.05013V20.0364H135.998V8.86273L145.332 20.0364H149V0.531555H144.924V13.1083Z" fill="white"/>
<path d="M101.348 8.44109H92.1239L92.1312 0.531555H88.0479V20.0364H92.1239V12.1341H92.9552H101.348V20.0364H105.424V0.531555H101.348V8.44109Z" fill="white"/>
<path d="M79.0282 15.6815C78.1239 16.1355 77.1239 16.3673 76.1115 16.3576C75.2707 16.3617 74.4368 16.2063 73.6542 15.8996C72.8928 15.6065 72.1911 15.1779 71.5833 14.6347C70.9608 14.0826 70.4667 13.4017 70.1355 12.6395C69.8042 11.8774 69.6439 11.0523 69.6656 10.2219C69.6425 9.39243 69.8022 8.56799 70.1336 7.80677C70.4649 7.04556 70.9598 6.36613 71.5833 5.81643C72.1908 5.271 72.8924 4.83996 73.6542 4.54422C74.4368 4.23754 75.2707 4.08211 76.1115 4.08622C77.1245 4.07912 78.1245 4.31341 79.0282 4.76958C79.8529 5.18934 80.5806 5.77617 81.1647 6.49252L84.395 3.91902L84.0158 3.50463C83.0301 2.4182 81.8314 1.5448 80.4939 0.938399C79.2197 0.337567 77.8366 0.000696756 76.4281 -0.0518235C75.0196 -0.104344 73.615 0.128582 72.2994 0.632848C70.9838 1.13711 69.7845 1.90223 68.7741 2.88193C67.7636 3.86162 66.963 5.03552 66.4208 6.33258C65.8915 7.56137 65.6187 8.88466 65.6187 10.2219C65.6187 11.5592 65.8915 12.8825 66.4208 14.1113C66.9293 15.3484 67.672 16.4763 68.6083 17.4336C70.1486 18.9238 72.1022 19.9186 74.2161 20.2893C76.33 20.66 78.5068 20.3895 80.4647 19.5127C81.8023 18.9063 83.0009 18.0329 83.9866 16.9465L84.3658 16.5321L81.1355 13.9586C80.558 14.6699 79.8409 15.2562 79.0282 15.6815Z" fill="white"/>
<path d="M40.7755 15.9508V12.5267V12.1341H48.1985V8.44109H40.7755V8.31023V4.62445V4.22461H40.9214H50.8965V0.531555H38.7338H36.6994H33.7827L36.6994 4.05013V20.0364H38.7338V20.0437H41.1182H51.9611V16.3506H40.7755V15.9508Z" fill="white"/>
<path d="M115.793 15.9508V12.5267V12.1341H123.209V8.44109H115.793V8.31023V4.62445V4.22461H115.939H125.907V0.531555H113.751H111.717H108.8L111.717 4.05013V20.0364H113.751V20.0437H116.129H126.979V16.3506H115.793V15.9508Z" fill="white"/>
<path d="M8.44318 36.4651H3.79103L2.9306 38.7406H0.174316L4.54938 28.4175H7.67754L12.0526 38.7406H9.29631L8.44318 36.4651ZM7.75775 34.6768L6.76607 32.0742C6.48563 31.4801 6.27519 30.8555 6.13898 30.2131H6.09523C5.95901 30.8555 5.74858 31.4801 5.46814 32.0742L4.47646 34.6768H7.75775Z" fill="white"/>
<path d="M18.1566 28.4086V34.5152C18.1566 35.1611 18.4139 35.7806 18.872 36.2373C19.3301 36.694 19.9515 36.9506 20.5993 36.9506C21.2472 36.9506 21.8685 36.694 22.3266 36.2373C22.7847 35.7806 23.0421 35.1611 23.0421 34.5152V28.4086H25.6963V34.7042C25.6963 37.3068 23.8442 39.0225 20.592 39.0225C17.3399 39.0225 15.4878 37.3068 15.4878 34.6606V28.3795L18.1566 28.4086Z" fill="white"/>
<path d="M29.998 33.6036C29.998 30.3322 32.3022 28.1222 35.8315 28.1222C38.7482 28.1222 40.7607 29.5761 41.2128 31.9025L38.5003 32.3823C38.418 31.74 38.0897 31.1543 37.5841 30.7478C37.0785 30.3412 36.4348 30.1455 35.7877 30.2014C33.8919 30.2014 32.7397 31.4954 32.7397 33.5745C32.7397 35.6537 33.9064 36.9332 35.8315 36.9332C36.4658 36.9821 37.0957 36.793 37.5975 36.403C38.0992 36.013 38.4368 35.4502 38.544 34.8249L41.2274 35.4065C40.5857 37.6602 38.6753 39.0414 35.7731 39.0414C32.1418 39.0269 29.998 36.8896 29.998 33.6036Z" fill="white"/>
<path d="M54.207 30.4882H50.6486V38.7394H47.9944V30.4882H44.436V28.4091H54.207V30.4882Z" fill="white"/>
<path d="M58.436 38.7406V28.4175H61.0757V38.7406H58.436Z" fill="white"/>
<path d="M65.5527 33.5745C65.5527 30.245 67.8715 28.1222 71.4299 28.1222C74.9883 28.1222 77.3071 30.245 77.3071 33.5745C77.3071 36.9041 75.0029 39.0269 71.4299 39.0269C67.8569 39.0269 65.5527 36.8896 65.5527 33.5745ZM74.5508 33.5745C74.5508 31.4663 73.3549 30.1432 71.4299 30.1432C69.5049 30.1432 68.3236 31.4663 68.3236 33.5745C68.3236 35.6828 69.5195 37.0059 71.4299 37.0059C73.3403 37.0059 74.5508 35.6828 74.5508 33.5745Z" fill="white"/>
<path d="M81.7993 28.4091H84.716L88.9307 34.2976C89.2122 34.696 89.4563 35.1194 89.6598 35.5625H89.7036C89.7036 35.1264 89.7036 34.6756 89.7036 34.1813V28.4091H92.1245V38.7394H89.3463L84.9712 32.7928C84.6933 32.4023 84.4494 31.9888 84.2421 31.5569C84.2421 32.0076 84.2421 32.4583 84.2421 32.9527V38.7685H81.8212L81.7993 28.4091Z" fill="white"/>
<path d="M105.949 36.8286V38.7406H97.3667V28.4175H105.854V30.3222H100.021V32.5613H105.621V34.3787H100.021V36.8214L105.949 36.8286Z" fill="white"/>
<path d="M119.454 36.8286V38.7406H110.857V28.4175H119.352V30.3222H113.518V32.5613H119.118V34.3787H113.518V36.8214L119.454 36.8286Z" fill="white"/>
<path d="M129.138 34.8949H127.009V38.7406H124.347V28.4175H129.947C132.864 28.4175 133.929 29.8714 133.929 31.6307C133.943 32.2896 133.735 32.9342 133.339 33.4614C132.942 33.9886 132.379 34.3679 131.741 34.5386L134.22 38.726H131.304L129.138 34.8949ZM127.009 33.1501H129.4C130.684 33.1501 131.18 32.4958 131.18 31.6525C131.18 30.8092 130.698 30.1986 129.4 30.1986H127.009V33.1501Z" fill="white"/>
<path d="M137.348 36.5598L139.288 35.2076C139.657 35.8105 140.182 36.3029 140.808 36.633C141.435 36.9631 142.139 37.1186 142.846 37.0832C144.202 37.0832 145.034 36.7052 145.034 35.891C145.034 35.0768 144.582 34.9023 143.444 34.7133L141.315 34.408C139.2 34.059 138.077 33.0994 138.077 31.2965C138.077 29.3482 139.827 28.1559 142.744 28.1559C144.932 28.1559 146.667 28.8393 147.644 30.2496L145.923 31.7036C145.565 31.1521 145.067 30.7052 144.479 30.4089C143.891 30.1125 143.234 29.9773 142.576 30.017C141.322 30.017 140.593 30.4096 140.593 31.0929C140.593 31.7763 141.016 32.0525 142.212 32.2416L144.283 32.5614C146.558 32.9104 147.622 33.7682 147.622 35.6002C147.622 37.6939 145.843 39.017 142.708 39.017C140.134 39.0243 138.201 38.0501 137.348 36.5598Z" fill="white"/>
<path d="M55.4902 52.9021V53.8472H51.1953V48.6929H55.4391V49.6452H52.5224V50.7648H55.3225V51.6808H52.5224V52.9021H55.4902Z" fill="#C6A55A"/>
<path d="M57.3286 52.7496L58.2984 52.0735C58.483 52.375 58.7456 52.6212 59.0587 52.7862C59.3719 52.9513 59.7239 53.029 60.0776 53.0113C60.7557 53.0113 61.1714 52.8223 61.1714 52.4152C61.1714 52.0081 60.9453 51.9209 60.3766 51.8264L59.312 51.6737C58.2547 51.4992 57.6932 51.0194 57.6932 50.118C57.6932 49.2165 58.5682 48.5477 60.0266 48.5477C60.4899 48.5068 60.9562 48.5809 61.3838 48.7636C61.8113 48.9463 62.1868 49.2318 62.4766 49.5945L61.6162 50.3215C61.4337 50.0541 61.1843 49.839 60.8927 49.6974C60.601 49.5558 60.2773 49.4928 59.9537 49.5146C59.3266 49.5146 58.962 49.7109 58.962 50.0525C58.962 50.3942 59.1734 50.5324 59.7714 50.6269L60.8068 50.7868C61.9443 50.9613 62.4766 51.3902 62.4766 52.3062C62.4766 53.3458 61.587 54.0073 60.0193 54.0073C59.4989 54.0573 58.9746 53.967 58.5012 53.7457C58.0279 53.5245 57.6229 53.1804 57.3286 52.7496Z" fill="#C6A55A"/>
<path d="M69.031 49.7324H67.2518V53.8472H65.9247V49.7324H64.1455V48.6929H69.031V49.7324Z" fill="#C6A55A"/>
<path d="M71.5545 53.8488H70.1982V52.6711H71.5545V53.8488Z" fill="#C6A55A"/>
<path d="M78.6925 50.4225C78.4044 50.6586 78.0364 50.7757 77.6644 50.7496H77.4019V49.6446H77.5623C77.8487 49.67 78.1354 49.6003 78.378 49.4465C78.6206 49.2927 78.8055 49.0634 78.904 48.7941H79.9613V53.8393H78.6925V50.4225Z" fill="#C6A55A"/>
<path d="M87.0783 51.2373C87.0783 52.9748 86.2689 53.9853 84.6574 53.9853C83.4835 53.9853 82.6814 53.4764 82.4699 52.5677L83.7241 52.3714C83.7756 52.5795 83.9003 52.7623 84.0757 52.8864C84.251 53.0105 84.4652 53.0677 84.6793 53.0475C85.4085 53.0475 85.8241 52.495 85.8387 51.5208C85.6537 51.7173 85.4262 51.8692 85.1735 51.9649C84.9208 52.0607 84.6496 52.0977 84.3803 52.0733C83.1553 52.0733 82.397 51.4554 82.397 50.4158C82.397 49.3762 83.272 48.6929 84.6428 48.6929C86.2179 48.6929 87.0783 49.5725 87.0783 51.2373ZM85.8241 50.5103C85.7929 50.2383 85.6567 49.9891 85.4444 49.8154C85.232 49.6417 84.9603 49.5572 84.6866 49.5798C84.0668 49.5798 83.6803 49.8924 83.6803 50.394C83.6803 50.8956 84.0668 51.1937 84.6574 51.1937C84.898 51.2086 85.1376 51.1515 85.3455 51.0297C85.5533 50.908 85.72 50.7271 85.8241 50.5103Z" fill="#C6A55A"/>
<path d="M89.7033 53.7532C89.73 52.9868 89.9271 52.2358 90.2801 51.5544C90.6332 50.873 91.1335 50.2783 91.745 49.813H88.7554V48.8025H92.9919V49.7403C92.3989 50.2026 91.9185 50.7926 91.5864 51.4661C91.2543 52.1396 91.0792 52.8792 91.0741 53.6296V53.8477H89.6741L89.7033 53.7532Z" fill="#C6A55A"/>
<path d="M94.771 52.2836L96.0689 52.1673C96.0689 52.7416 96.4773 53.0542 97.1116 53.0542C97.746 53.0542 98.0815 52.8071 98.0815 52.3272C98.0815 51.8474 97.746 51.6657 97.0679 51.6657H96.6377V50.8587H97.0387C97.6439 50.8587 97.9502 50.6334 97.9502 50.2117C97.9502 49.7901 97.6367 49.5865 97.046 49.5865C96.9211 49.5694 96.794 49.5798 96.6736 49.617C96.5532 49.6543 96.4425 49.7174 96.3493 49.802C96.2561 49.8866 96.1826 49.9906 96.1342 50.1066C96.0857 50.2227 96.0635 50.3479 96.0689 50.4735L94.7929 50.3281C94.7929 49.3394 95.646 48.6633 97.0825 48.6633C98.5189 48.6633 99.27 49.194 99.27 50.0809C99.2577 50.3753 99.1359 50.6545 98.9283 50.8642C98.7207 51.0739 98.4422 51.199 98.1471 51.215C98.9419 51.3167 99.4013 51.7166 99.4013 52.4218C99.4013 53.345 98.5262 53.9557 97.0825 53.9557C95.6387 53.9557 94.8075 53.345 94.771 52.2836Z" fill="#C6A55A"/>
</g>
<defs>
<clipPath id="clip0_401_2123">
<rect width="149" height="54" fill="white"/>
</clipPath>
</defs>
</svg>
